<?xml version="1.0" encoding="UTF-8" standalone="no"?>
<svg version="2"
	xmlns="http://www.w3.org/2000/svg">
<style>
/* <![CDATA[ */
svg{width:100dvw;height:100dvh}
/* ]]> */
</style>
<defs>
<symbol id="i01" viewBox="0 0 900 600">
<rect fill="#D2D200" width="900" height="600" x="0" y="0" rx="15" ry="15" />
<g id="fourlines">
 <g id="fulline">
  <g id="partline">
	<g id="r1">
		<ellipse style="fill:#0066FF;stroke:#000000;stroke-width:4"
			cx="67" cy="58.5" rx="6" ry="22.5" />
		<ellipse fill="none" stroke="#FFFFFF" stroke-width="4"
			pathLength="100" stroke-dasharray="50" stroke-dashoffset="25"
			cx="67" cy="58.5" rx="6" ry="22.5" />
	</g>
	<g id="r2">
		<ellipse style="fill:#0066FF;stroke:#000000;stroke-width:4"
			cx="93" cy="58.5" rx="8" ry="22.5" />
		<ellipse fill="none" stroke="#FFFFFF" stroke-width="4"
			pathLength="100" stroke-dasharray="50" stroke-dashoffset="25"
			cx="93" cy="58.5" rx="8" ry="22.5" />
	</g>
	<g id="r3">
		<ellipse style="fill:#0066FF;stroke:#000000;stroke-width:4"
			cx="124" cy="58.5" rx="11" ry="22.5" />
		<ellipse fill="none" stroke="#FFFFFF" stroke-width="4"
			pathLength="100" stroke-dasharray="50" stroke-dashoffset="25"
			cx="124" cy="58.5" rx="11" ry="22.5" />
	</g>
	<g id="r4">
		<ellipse style="fill:#0066FF;stroke:#000000;stroke-width:4"
			cx="168" cy="58.5" rx="14" ry="22.5" />
		<ellipse fill="none" stroke="#FFFFFF" stroke-width="4"
			pathLength="100" stroke-dasharray="50" stroke-dashoffset="25"
			cx="168" cy="58.5" rx="14" ry="22.5" />
	</g>
	<use href="#r4" x="46" />
	<use href="#r3" x="134" />
	<use href="#r2" x="196" />
	<use href="#r1" x="248" />
  </g>
  <use href="#partline" x="257" transform="scale(-1,1)" transform-origin="center" />
  <use href="#partline" x="526" />
 </g>
 <use href="#fulline" y="70" />
 <use href="#fulline" y="138" />
 <use href="#fulline" y="207" />
</g>
<use href="#fourlines" y="276" />
</symbol>
<symbol id="i02" viewBox="0 0 900 900">
<rect fill="#99CC00" width="900" height="900" x="0" y="0" rx="15" ry="15" />
<g id="tline">
 <g id="e1-total">
  <g id="e1-full">
   <g id="e1-half">
	<g id="e1">
	  <ellipse style="fill:#A15000;stroke:#461400;stroke-width:5"
		cx="150" cy="40" rx="20" ry="32" />
	  <ellipse fill="none" stroke="#FFFFFF" stroke-width="5"
		pathLength="100" stroke-dasharray="50" stroke-dashoffset="-25"
		cx="150" cy="40" rx="20" ry="32" />
	</g>
	<use href="#e1" transform="rotate(30,150,150)" />
	<use href="#e1" transform="rotate(60,150,150)" />
	<use href="#e1" transform="rotate(90,150,150)" />
	<use href="#e1" transform="rotate(120,150,150)" />
	<use href="#e1" transform="rotate(150,150,150)" />
	</g>
	<use href="#e1-half" transform="rotate(180,150,150)" />
  </g>
	<use href="#e1-full" transform="rotate(15) scale(0.59) translate(161,30)" />
	<use href="#e1-full" transform="scale(0.34) translate(290,290)" />
	<use href="#e1-full" transform="rotate(15) scale(0.2) translate(767,379)" />
	<use href="#e1-full" transform="scale(0.115) translate(1152,1152)" />
	<use href="#e1-full" transform="rotate(15) scale(0.066) translate(2629,1453)" />
	<use href="#e1-full" transform="scale(0.036) translate(4010,4010)" />
	<circle cx="149.8" cy="149.8" r="2.25" fill="#461400" />
 </g>
 <g id="e2">
	<use href="#e1-total" x="300" transform="scale(-1,1)" transform-origin="center" />
 </g>
 <use href="#e1-total" x="600" />
</g>
<use href="#e2" x="-300" y="300" />
<use href="#e1-total" x="300" y="300" />
<use href="#e2" x="300" y="300" />
<use href="#tline" y="600" />
</symbol>
<symbol id="i03" viewBox="290 -10 400 300">
 <defs>
  <g id="blob_1">
   <ellipse cx="0" cy="-1" rx="7" ry="8" fill="#000000"/>
   <ellipse cx="0"  cy="1" rx="7" ry="8" fill="#ffffff"/>
   <circle  cx="0"  cy="0"  r="7"        fill="#0000ff"/>
  </g>
  <g id="blob_18">
   <use href="#blob_1"/>
   <use href="#blob_1" transform="translate( 20,0) rotate( -20)"/>
   <use href="#blob_1" transform="translate( 40,0) rotate( -40)"/>
   <use href="#blob_1" transform="translate( 60,0) rotate( -60)"/>
   <use href="#blob_1" transform="translate( 80,0) rotate( -80)"/>
   <use href="#blob_1" transform="translate(100,0) rotate(-100)"/>
   <use href="#blob_1" transform="translate(120,0) rotate(-120)"/>
   <use href="#blob_1" transform="translate(140,0) rotate(-140)"/>
   <use href="#blob_1" transform="translate(160,0) rotate(-160)"/>
   <use href="#blob_1" transform="translate(180,0) rotate(-180)"/>
   <use href="#blob_1" transform="translate(200,0) rotate(-200)"/>
   <use href="#blob_1" transform="translate(220,0) rotate(-220)"/>
   <use href="#blob_1" transform="translate(240,0) rotate(-240)"/>
   <use href="#blob_1" transform="translate(260,0) rotate(-260)"/>
   <use href="#blob_1" transform="translate(280,0) rotate(-280)"/>
   <use href="#blob_1" transform="translate(300,0) rotate(-300)"/>
   <use href="#blob_1" transform="translate(320,0) rotate(-320)"/>
   <use href="#blob_1" transform="translate(340,0) rotate(-340)"/>
  </g>
  <g id="blob_36">
   <use href="#blob_18"/>
   <use href="#blob_18" transform="translate(360,0)"/>
  </g>
 </defs>
 <g stroke="none">
  <circle cx="0" cy="0" r="9999" fill="#80b300"/>
  <use href="#blob_36"/>
  <use href="#blob_36" transform="translate( 20, 20)"/>
  <use href="#blob_36" transform="translate( 40, 40)"/>
  <use href="#blob_36" transform="translate( 60, 60)"/>
  <use href="#blob_36" transform="translate( 80, 80)"/>
  <use href="#blob_36" transform="translate(100,100)"/>
  <use href="#blob_36" transform="translate(120,120)"/>
  <use href="#blob_36" transform="translate(140,140)"/>
  <use href="#blob_36" transform="translate(160,160)"/>
  <use href="#blob_36" transform="translate(180,180)"/>
  <use href="#blob_36" transform="translate(200,200)"/>
  <use href="#blob_36" transform="translate(220,220)"/>
  <use href="#blob_36" transform="translate(240,240)"/>
  <use href="#blob_36" transform="translate(260,260)"/>
  <use href="#blob_36" transform="translate(280,280)"/>
 </g>
</symbol>
<symbol id="i04" viewBox="0 0 750 600">
<defs>
	<linearGradient id="b2y">
		<stop offset="0%" stop-color="#B6B600" />
		<stop offset="100%" stop-color="#FFFF00" />
	</linearGradient>
	<linearGradient id="p2b">
		<stop offset="0%" stop-color="#FB00FB" />
		<stop offset="100%" stop-color="#000000" />
	</linearGradient>
</defs>
<g id="twolines">
 <g id="line1">
  <g id="two">
	<rect width="75" height="75"
		y="0" x="0" fill="url('#b2y')" />
	<rect width="20" height="20" id="b"
		y="5" x="50" fill="url('#p2b')" />
	<use href="#b" y="45" />
	<rect width="75" height="75"
		y="0" x="75" fill="url('#p2b')" />
	<rect width="20" height="20" id="y"
		y="5" x="125" fill="url('#b2y')" />
	<use href="#y" y="45" />
  </g>
  <use href="#two" x="150" />
  <use href="#two" x="300" />
  <use href="#two" x="450" />
  <use href="#two" x="600" />
 </g>
 <use href="#line1" y="75" transform="scale(-1,1)" transform-origin="center" />
</g>
<use href="#twolines" y="150" />
<use href="#twolines" y="300" />
<use href="#twolines" y="450" />
</symbol>
<symbol id="i05" viewBox="0 0 200 200">
 <defs>
  <g id="vertices">
   <use href="#vertex_l" transform="translate( 0,0)"/>
   <use href="#vertex_d" transform="translate(10,0)"/>
   <use href="#vertex_l" transform="translate(20,0)"/>
   <use href="#vertex_d" transform="translate(30,0)"/>
   <use href="#vertex_d" transform="translate(40,0)"/>
   <use href="#vertex_l" transform="translate(50,0)"/>
   <use href="#vertex_d" transform="translate(60,0)"/>
   <use href="#vertex_l" transform="translate(70,0)"/>
  </g>
  <g id="row">
   <use href="#vertices" transform="translate(  0,0)"/>
   <use href="#vertices" transform="translate( 80,0)"/>
   <use href="#vertices" transform="translate(160,0)"/>
   <use href="#vertices" transform="translate(240,0)"/>
   <use href="#vertices" transform="translate(320,0)"/>
  </g>
  <g id="rows">
   <use href="#row" transform="translate(-10,10)"/>
   <use href="#row" transform="translate(-20,20)"/>
   <use href="#row" transform="translate(-30,30)"/>
   <use href="#row" transform="translate(-40,40)"/>
   <use href="#row" transform="translate(-50,50)"/>
  </g>
  <clipPath id="clip_vertex">
   <rect x="5" y="5" width="190" height="190"/>
  </clipPath>
  <path id="vertex" d="M 0,2 C 2,0 -2,0 0,-2 C 2,0 -2,0 0,2 M 2,0 C 0,2 0,-2 -2,0 C 0,2 0,-2 2,0"/>
  <use id="vertex_l" href="#vertex" fill="#ffffff"/>
  <use id="vertex_d" href="#vertex" fill="#666666"/>
  <pattern id="pattern_grid" patternUnits="userSpaceOnUse" width="20" height="20">
   <path d="M 0,0 H 10 V 20 H 20 V 10 H 0 Z" fill="#999999"/>
  </pattern>
 </defs>
 <circle cx="0" cy="0" r="99999" fill="#cccccc"/>
 <rect x="0" y="0" width="200" height="200" fill="url(#pattern_grid)"/>
 <g clip-path="url(#clip_vertex)">
  <use href="#rows" transform="translate(   0,  0)"/>
  <use href="#rows" transform="translate( -50, 50)"/>
  <use href="#rows" transform="translate(-100,100)"/>
  <use href="#rows" transform="translate(-150,150)"/>
 </g>
</symbol>
<symbol id="i06" viewBox="0 0 900 600">
<rect fill="#0066FF" width="900" height="600" x="0" y="0" rx="15" ry="15" />
<g id="threelines">
 <g id="sfulline">
  <g id="spartline">
	<g id="sr1">
		<ellipse style="fill:#D2D200;stroke:#000000;stroke-width:3"
			cx="115" cy="63" rx="25" ry="16" />
		<ellipse fill="none" stroke="#FFFFFF" stroke-width="3"
			pathLength="100" stroke-dasharray="50" stroke-dashoffset="50"
			cx="115" cy="63" rx="25" ry="16" />
	</g>
	<use href="#sr1" transform="rotate(330,115,182)" />
	<use href="#sr1" transform="rotate(30,115,182)" />
	<use href="#sr1" transform="rotate(60,140,179)" />
	<use href="#sr1" transform="rotate(90,175,169)" />
	<use href="#sr1" transform="rotate(120,206,158)" />
  </g>
  <g id="midpart">
	<use href="#sr1" transform="rotate(150,241,142)" />
	<use href="#sr1" transform="rotate(180,281,110)" />
	<use href="#sr1" transform="rotate(210,321,53)" />
  </g>
  <use href="#spartline" x="6" transform="scale(-1,1)" transform-origin="center" />
 </g>
 <use href="#sfulline" y="69" />
 <use href="#sfulline" y="138" />
</g>
<use href="#sr1" transform="rotate(120,226,124)" />
<use href="#midpart" y="-69" />
<use href="#sr1" transform="rotate(240,335,-69)" />
<use href="#threelines" y="207" />
<use href="#spartline" y="413" />
<use href="#spartline" y="413" x="6" transform="scale(-1,1)" transform-origin="center" />
</symbol>
<symbol id="i07" viewBox="-128 -128 256 256">
<defs>
  <radialGradient id="grad_burst" cx="0" cy="0" r="60" fx="0" fy="0" gradientUnits="userSpaceOnUse">
   <stop offset="00%" stop-color="#ffffff"/><stop offset="04%" stop-color="#000000"/><stop offset="05%" stop-color="#ffffff"/><stop offset="09%" stop-color="#000000"/>
   <stop offset="10%" stop-color="#ffffff"/><stop offset="14%" stop-color="#000000"/><stop offset="15%" stop-color="#ffffff"/><stop offset="19%" stop-color="#000000"/>
   <stop offset="20%" stop-color="#ffffff"/><stop offset="24%" stop-color="#000000"/><stop offset="25%" stop-color="#ffffff"/><stop offset="29%" stop-color="#000000"/>
   <stop offset="30%" stop-color="#ffffff"/><stop offset="34%" stop-color="#000000"/><stop offset="35%" stop-color="#ffffff"/><stop offset="39%" stop-color="#000000"/>
   <stop offset="40%" stop-color="#ffffff"/><stop offset="44%" stop-color="#000000"/><stop offset="45%" stop-color="#ffffff"/><stop offset="49%" stop-color="#000000"/>
   <stop offset="50%" stop-color="#ffffff"/><stop offset="54%" stop-color="#000000"/><stop offset="55%" stop-color="#ffffff"/><stop offset="59%" stop-color="#000000"/>
   <stop offset="60%" stop-color="#ffffff"/><stop offset="64%" stop-color="#000000"/><stop offset="65%" stop-color="#ffffff"/><stop offset="69%" stop-color="#000000"/>
   <stop offset="70%" stop-color="#ffffff"/><stop offset="74%" stop-color="#000000"/><stop offset="75%" stop-color="#ffffff"/><stop offset="79%" stop-color="#000000"/>
   <stop offset="80%" stop-color="#ffffff"/><stop offset="84%" stop-color="#000000"/><stop offset="85%" stop-color="#ffffff"/><stop offset="89%" stop-color="#000000"/>
   <stop offset="90%" stop-color="#ffffff"/><stop offset="94%" stop-color="#000000"/><stop offset="95%" stop-color="#ffffff"/><stop offset="99%" stop-color="#000000"/>
  </radialGradient>
  <radialGradient id="grad_hue" cx="50%" cy="50%" r="50%" fx="50%" fy="50%">
   <stop offset="00%" stop-opacity="0"/>
   <stop offset="10%" stop-color="#cc0000"/>
   <stop offset="20%" stop-color="#009900"/>
   <stop offset="30%" stop-color="#0000ff"/>
   <stop offset="40%" stop-color="#cc0000"/>
   <stop offset="50%" stop-color="#009900"/>
   <stop offset="60%" stop-color="#0000ff"/>
   <stop offset="70%" stop-color="#cc0000"/>
   <stop offset="80%" stop-color="#009900"/>
   <stop offset="90%" stop-color="#0000ff"/>
   <stop offset="99%" stop-opacity="0"/>
  </radialGradient>
  <path id="sector_15deg" d="M 0,0 L -47,-35.7 H 47 Z" fill="url(#grad_burst)" transform="scale(1,10)"/>
  <g id="sector_90deg">
   <use href="#sector_15deg"/>
   <use href="#sector_15deg" transform="rotate(15)"/>
   <use href="#sector_15deg" transform="rotate(30)"/>
   <use href="#sector_15deg" transform="rotate(45)"/>
   <use href="#sector_15deg" transform="rotate(60)"/>
   <use href="#sector_15deg" transform="rotate(75)"/>
  </g>
</defs>
 <circle cx="0" cy="0" r="99999" fill="#000000"/>
 <use href="#sector_90deg"/>
 <use href="#sector_90deg" transform="rotate(90)"/>
 <use href="#sector_90deg" transform="rotate(180)"/>
 <use href="#sector_90deg" transform="rotate(270)"/>
 <circle cx="0" cy="0" r="400" fill="url(#grad_hue)" fill-opacity="0.3"/>
</symbol>
<symbol id="i08" viewBox="0 0 895 350">
<defs>
	<filter id="blurMe">
		<feGaussianBlur in="SourceGraphic" stdDeviation="6" />
	</filter>
	<linearGradient id="wbhi" gradientTransform="rotate(90)">
		<stop offset="0%" stop-color="white" />
		<stop offset="40%" stop-color="blue" />
		<stop offset="45%" stop-color="black" />
		<stop offset="50%" stop-color="yellow" />
		<stop offset="55%" stop-color="white" />
		<stop offset="100%" stop-color="blue" />
	</linearGradient>
	<linearGradient id="bwhi" gradientTransform="rotate(90)">
		<stop offset="0%" stop-color="blue" />
		<stop offset="35%" stop-color="white" />
		<stop offset="40%" stop-color="yellow" />
		<stop offset="45%" stop-color="black" />
		<stop offset="50%" stop-color="blue" />
		<stop offset="100%" stop-color="white" />
	</linearGradient>
	<linearGradient id="bwlow" gradientTransform="rotate(90)">
		<stop offset="0%" stop-color="blue" />
		<stop offset="40%" stop-color="white" />
		<stop offset="45%" stop-color="yellow" />
		<stop offset="50%" stop-color="black" />
		<stop offset="55%" stop-color="blue" />
		<stop offset="100%" stop-color="white" />
	</linearGradient>
	<linearGradient id="wblow" gradientTransform="rotate(90)">
		<stop offset="0%" stop-color="white" />
		<stop offset="45%" stop-color="blue" />
		<stop offset="50%" stop-color="black" />
		<stop offset="55%" stop-color="yellow" />
		<stop offset="60%" stop-color="white" />
		<stop offset="100%" stop-color="blue" />
	</linearGradient>
	</defs>
<rect style="opacity:1;fill:#FFFFFF;fill-opacity:1;fill-rule:nonzero;stroke:#ffffff;stroke-width:3.54;stroke-linecap:round;stroke-miterlimit:4;stroke-dasharray:none;stroke-dashoffset:0;stroke-opacity:1"
		width="895" height="350" x="0" y="0" rx="15" ry="15" />
<g filter="url('#blurMe')">
<g id="first">
	<rect width="40" height="320" rx="3" ry="3"
		y="15" x="15" fill="url('#wbhi')" />
</g>
<g id="second">
	<rect width="40" height="320" rx="3" ry="3"
		y="15" x="70" fill="url('#bwhi')" />
	<rect width="40" height="320" rx="3" ry="3"
		y="15" x="125" fill="url('#bwlow')" />
</g>
<g id="third">
	<g id="last">
		<rect width="40" height="320" rx="3" ry="3"
			y="15" x="180" fill="url('#wblow')" />
	</g>
	<use href="#first" x="220" />
	<use href="#second" x="220" />
</g>
<use href="#third" x="220" />
<use href="#third" x="440" />
<use href="#last" x="660" />
</g>
</symbol>
<symbol id="i09" viewBox="0 0 320 320">
<defs>
	<pattern id="a" patternUnits="userSpaceOnUse" width="40" height="40">
	<path fill="#999" d="M0 0h40v40H0z"/><path d="M0 0h18v18H0zm25 0h18v18H25zM0 25h18v18H0zm25 0h18v18H25z"/>
	<circle cx="21.5" cy="21.5" r="4.3" fill="#fff"/>
	</pattern>
</defs>
<path fill="url(#a)" d="M0 0h320v320H0z"/>
</symbol>
<symbol id="i10" viewBox="0 0 1200 600">
<defs>
	<filter id="rblurMe">
		<feGaussianBlur in="SourceGraphic" stdDeviation="6" />
	</filter>
</defs>
<rect fill="#8C8C8C" width="1200" height="600" x="0" y="0" rx="15" ry="15" />
<g id="tcol">
  <g id="re1-full" filter="url(#rblurMe)">
   <g id="re1-half">
	<g id="re1">
	  <ellipse style="fill:#F81010;stroke:#000000;stroke-width:1"
		cx="150" cy="50" rx="13" ry="25" />
	  <ellipse fill="none" stroke="#FFFFFF" stroke-width="1"
		pathLength="100" stroke-dasharray="50" stroke-dashoffset="-25"
		cx="150" cy="50" rx="13" ry="25" />
	</g>
	<use href="#re1" transform="rotate(30,150,150)" />
	<use href="#re1" transform="rotate(60,150,150)" />
	<use href="#re1" transform="rotate(90,150,150)" />
	<use href="#re1" transform="rotate(120,150,150)" />
	<use href="#re1" transform="rotate(150,150,150)" />
   </g>
   <use href="#re1-half" transform="rotate(180,150,150)" />
  </g>
  <use href="#re1-full" y="300" />
</g>
<use href="#tcol" x="300" />
<use href="#tcol" x="600" />
<use href="#tcol" x="900" />
</symbol>
<symbol id="i11" viewBox="0 0 1024 768">
<defs>
	<linearGradient id="b2w" gradientTransform="rotate(90)">
		<stop offset="0%" stop-color="#00CCFF" />
		<stop offset="84%" stop-color="#00CCFF" />
		<stop offset="92%" stop-color="#FFFFFF" />
	</linearGradient>
	<linearGradient id="w2t" gradientTransform="rotate(90)">
		<stop offset="0%" stop-color="#FFFFFF" />
		<stop offset="40%" stop-color="#FFFFFF" stop-opacity="0" />
	</linearGradient>
	<linearGradient id="t2w" gradientTransform="rotate(90)">
		<stop offset="60%" stop-color="#FFFFFF" stop-opacity="0" />
		<stop offset="100%" stop-color="#FFFFFF" />
	</linearGradient>
</defs>
<rect fill="url('#b2w')" width="1024" height="768" x="0" y="0" rx="15" ry="15" />
<g id="five">
  <g id="ftwo">
	<ellipse id="up" fill="url('#w2t')" cx="84" cy="136" rx="24" ry="60" />
	<use href="#up" x="59" />
  </g>
  <use href="#ftwo" y="59" />
  <use href="#ftwo" y="118" />
  <use href="#ftwo" y="177" />
  <use href="#ftwo" y="236" />
</g>
<use href="#five" y="295" />
<use href="#five" x="802" />
<use href="#five" x="802" y="295" />
<g id="dcol">
 <g id="d5">
  <g id="d2">
	<ellipse id="dn" fill="url('#t2w')" cx="225" cy="75" rx="24" ry="60" />
	<use href="#dn" x="59" />
  </g>
  <use href="#d2" y="59" />
  <use href="#d2" y="118" />
  <use href="#d2" y="177" />
  <use href="#d2" y="236" />
 </g>
 <use href="#d5" y="295" />
</g>
<use href="#dcol" x="130" y="-12" />
<use href="#dcol" x="260" />
<use href="#dcol" x="390" y="-12" />
<use href="#dcol" x="520" />
</symbol>
<symbol id="i12" viewBox="-200 -150 400 300">
<defs>
  <path id="tongue" d="M -5 -60 Q 0 -58 0 -50 Q 0 -58 5 -60" stroke-linecap="round" stroke-width="2" stroke="#ff6699" fill="none"/>

  <g id="blob" transform="translate(0,-45)">
   <rect x="-3" y="-5" width="6" height="10" fill="#000000"/>
   <ellipse cx="-3" cy="0" rx="2.5" ry="5" fill="#ff6666"/>
   <ellipse cx="3" cy="0" rx="2.5" ry="5" fill="#ffcc00"/>
  </g>
  <g id="blob6">
   <use href="#blob"/>
   <use href="#blob" transform="rotate(15)"/>
   <use href="#blob" transform="rotate(30)"/>
   <use href="#blob" transform="rotate(45)"/>
   <use href="#blob" transform="rotate(60)"/>
   <use href="#blob" transform="rotate(75)"/>
  </g>

  <g id="ring1">
   <use href="#blob6"/>
   <use href="#blob6" transform="rotate(90)"/>
   <use href="#blob6" transform="rotate(180)"/>
   <use href="#blob6" transform="rotate(270)"/>
  </g>
  <g id="ring2"><use href="#ring1"/><use href="#ring1" transform="scale(0.8) rotate(7.5)"/></g>
  <g id="ring4"><use href="#ring2"/><use href="#ring2" transform="scale(0.64)"/></g>
  <g id="ring8"><use href="#ring4"/><use href="#ring4" transform="scale(0.4096)"/></g>
  <g id="ring16"><use href="#ring8"/><use href="#ring8" transform="scale(0.16777216)"/></g>
  <g id="ring32"><use href="#ring16"/><use href="#ring16" transform="scale(0.0281475)"/></g>

  <g id="disc">
   <circle cx="0" cy="0" r="50" fill="#ffffff"/>
   <circle cx="0" cy="0" r="1.40737488" fill="#c08080"/>
   <use href="#ring16"/>
  </g>
  <g id="disc1x2">
   <use href="#disc" transform="translate(0,-50)"/>
   <use href="#disc" transform="translate(0,50) scale(-1,1)"/>
  </g>
  <g id="disc3x2">
   <use href="#disc1x2" transform="translate(-100,0)"/>
   <use href="#disc1x2" transform="scale(-1,1)"/>
   <use href="#disc1x2" transform="translate(100,0)"/>
  </g>
  <g id="disc1x3">
   <use href="#disc" transform="translate(0,-100)"/>
   <use href="#disc" transform="scale(-1,1)"/>
   <use href="#disc" transform="translate(0,100)"/>
  </g>
  <g id="disc4x3">
   <use href="#disc1x3" transform="translate(-150,0)"/>
   <use href="#disc1x3" transform="translate(-50,0) scale(-1,1)"/>
   <use href="#disc1x3" transform="translate(50,0)"/>
   <use href="#disc1x3" transform="translate(150,0) scale(-1,1)"/>
  </g>
</defs>
<use href="#disc4x3"/>
<use href="#disc3x2"/>
<use href="#tongue" transform="translate(-150,-100) rotate(45)"/>
<use href="#tongue" transform="translate(-150,0) rotate(315)"/>
<use href="#tongue" transform="translate(-150,100) rotate(315)"/>
<use href="#tongue" transform="translate(-50,-100) rotate(45)"/>
<use href="#tongue" transform="translate(-50,100) rotate(225)"/>
<use href="#tongue" transform="translate(50,-100) rotate(45)"/>
<use href="#tongue" transform="translate(50,100) rotate(225)"/>
<use href="#tongue" transform="translate(150,-100) rotate(135)"/>
<use href="#tongue" transform="translate(150,0) rotate(135)"/>
<use href="#tongue" transform="translate(150,100) rotate(225)"/>
</symbol>
<symbol id="i13" viewBox="0 0 1050 794">
<defs>
		<filter id="cblurMe">
			<feGaussianBlur in="SourceGraphic" stdDeviation="6" />
		</filter>
		<linearGradient id="p2r">
			<stop offset="0%" stop-color="#FF44CC" />
			<stop offset="100%" stop-color="#FF0000" />
		</linearGradient>
		<linearGradient id="p2p">
			<stop offset="0%" stop-color="#AF20FF" />
			<stop offset="100%" stop-color="#FF44CC" />
		</linearGradient>
		</defs>
<g filter="url('#cblurMe')">
 <g id="ctwolines">
  <g id="cline1">
	<g id="four">
	 <g id="ctwo">
		<rect width="64" height="64" id="r"
			y="12" x="12" fill="url('#p2r')" />
		<rect width="64" height="64" id="p"
			y="12" x="76" fill="url('#p2p')" />
	 </g>
	 <use href="#ctwo" x="128" />
	</g>
	<use href="#four" x="128" />
	<use href="#four" x="384" />
	<use href="#four" x="640" />
  </g>
  <use href="#ctwo" x="896" />
  <use href="#p" y="64" x="-64" />
  <use href="#cline1" y="64" x="64" />
  <use href="#r" y="64" x="960" />
 </g>
 <g id="rtwolines" transform="translate(38)">
  <use href="#r" y="128" x="1000" transform="scale(-1,1)" transform-origin="center" />
  <g id="rline">
	<use href="#cline1" y="128" x="104" transform="scale(-1,1)" transform-origin="center" />
  </g>
  <use href="#p" y="128" x="-24" transform="scale(-1,1)" transform-origin="center" />
  <use href="#rline" y="64" x="-64" />
  <use href="#r" y="192" x="40" transform="scale(-1,1)" transform-origin="center" />
  <use href="#p" y="192" x="40" transform="scale(-1,1)" transform-origin="center" />
 </g>
 <use href="#ctwolines" y="384" />
 <use href="#ctwolines" y="512" />
 <use href="#rtwolines" y="128" />
 <use href="#rtwolines" y="512" />
</g>
</symbol>
<symbol id="i14" viewBox="-150 -100 300 200">
<defs>
  <path id="stongue" d="M -5 -60 Q 0 -58 0 -50 Q 0 -58 5 -60" stroke-linecap="round" stroke-width="2" stroke="#cc6699" fill="none"/>

  <g id="sblob" transform="translate(0,-45)">
   <rect x="-3" y="-5" width="6" height="10" fill="#000000"/>
   <ellipse cx="-3" cy="0" rx="2.5" ry="5" fill="#9999ff"/>
   <ellipse cx="3" cy="0" rx="2.5" ry="5" fill="#cccc00"/>
  </g>
  <g id="sblob6">
   <use href="#sblob"/>
   <use href="#sblob" transform="rotate(15)"/>
   <use href="#sblob" transform="rotate(30)"/>
   <use href="#sblob" transform="rotate(45)"/>
   <use href="#sblob" transform="rotate(60)"/>
   <use href="#sblob" transform="rotate(75)"/>
  </g>

  <g id="sring1">
   <use href="#sblob6"/>
   <use href="#sblob6" transform="rotate(90)"/>
   <use href="#sblob6" transform="rotate(180)"/>
   <use href="#sblob6" transform="rotate(270)"/>
  </g>
  <g id="sring2"><use href="#sring1"/><use href="#sring1" transform="scale(0.8) rotate(7.5)"/></g>
  <g id="sring4"><use href="#sring2"/><use href="#sring2" transform="scale(0.64)"/></g>
  <g id="sring8"><use href="#sring4"/><use href="#sring4" transform="scale(0.4096)"/></g>
  <g id="sring16"><use href="#sring8"/><use href="#sring8" transform="scale(0.16777216)"/></g>
  <g id="sring32"><use href="#sring16"/><use href="#sring16" transform="scale(0.0281475)"/></g>

  <g id="sdisc">
   <circle cx="0" cy="0" r="50" fill="#ffffff"/>
   <circle cx="0" cy="0" r="1.40737488" fill="#999999"/>
   <use href="#sring16"/>
  </g>
  <g id="sdisc1x2">
   <use href="#sdisc" transform="translate(0,-50)"/>
   <use href="#sdisc" transform="translate(0,50) scale(-1,1)"/>
  </g>
  <g id="sdisc3x2">
   <use href="#sdisc1x2" transform="translate(-100,0)"/>
   <use href="#sdisc1x2" transform="scale(-1,1)"/>
   <use href="#sdisc1x2" transform="translate(100,0)"/>
  </g>
  <g id="sdisc1x3">
   <use href="#sdisc" transform="translate(0,-100)"/>
   <use href="#sdisc" transform="scale(-1,1)"/>
   <use href="#sdisc" transform="translate(0,100)"/>
  </g>
  <g id="sdisc4x3">
   <use href="#sdisc1x3" transform="translate(-150,0)"/>
   <use href="#sdisc1x3" transform="translate(-50,0) scale(-1,1)"/>
   <use href="#sdisc1x3" transform="translate(50,0)"/>
   <use href="#sdisc1x3" transform="translate(150,0) scale(-1,1)"/>
  </g>
</defs>
 <use href="#sdisc1x2" transform="rotate(90)"/>
 <use href="#sdisc3x2"/>
 <use href="#stongue" transform="translate(-100,-50) rotate(45)"/>
 <use href="#stongue" transform="translate(-100,50) rotate(315)"/>
 <use href="#stongue" transform="translate(0,-50) rotate(45)"/>
 <use href="#stongue" transform="translate(0,50) rotate(225)"/>
 <use href="#stongue" transform="translate(100,-50) rotate(135)"/>
 <use href="#stongue" transform="translate(100,50) rotate(225)"/>
</symbol>
</defs>
<animate attributeName="viewBox" repeatCount="indefinite" begin="0s;a14.wheel;a01.auxclick" values="0 0 100 68;0 0 100 68;0 1068 100 100;0 1068 100 100;0 2168 100 76;0 2168 100 76;0 3244 100 80;0 3244 100 80;0 4324 100 100;0 4324 100 100;0 5424 100 69;0 5424 100 69;0 6493 100 100;0 6493 100 100;0 7593 100 40;0 7593 100 40;0 8633 100 100;0 8633 100 100;0 9733 100 50;0 9733 100 50;0 10783 100 76;0 10783 100 76;0 11859 100 76;0 11859 100 76;0 12935 100 76;0 12935 100 76;0 14011 100 68;0 14011 100 68" keyTimes="0;0.0713;0.0714;0.1427;0.1428;0.2141;0.2142;0.2855;0.2856;0.3569;0.357;0.4283;0.4284;0.4999;0.5;0.5713;0.5714;0.6427;0.6428;0.7141;0.7142;0.7855;0.7856;0.8569;0.857;0.9283;0.9284;1" end="a01.click;a01.wheel;a02.click;a02.auxclick;a02.wheel;a03.click;a03.auxclick;a03.wheel;a04.click;a04.auxclick;a04.wheel;a05.click;a05.auxclick;a05.wheel;a06.click;a06.auxclick;a06.wheel;a07.click;a07.auxclick;a07.wheel;a08.click;a08.auxclick;a08.wheel;a09.click;a09.auxclick;a09.wheel;a10.click;a10.auxclick;a10.wheel;a11.click;a11.auxclick;a11.wheel;a12.click;a12.auxclick;a12.wheel;a13.click;a13.auxclick;a13.wheel;a14.click;a14.auxclick" dur="140s" />
<animate attributeName="viewBox" to="0 0 100 68" begin="a14.click;a02.auxclick" dur=".1s" fill="freeze" />
<animate attributeName="viewBox" to="0 1068 100 100" begin="a01.click;a01.wheel;a03.auxclick" dur=".1s" fill="freeze" />
<animate attributeName="viewBox" to="0 2168 100 76" begin="a02.click;a02.wheel;a04.auxclick" dur=".1s" fill="freeze" />
<animate attributeName="viewBox" to="0 3244 100 80" begin="a03.click;a03.wheel;a05.auxclick" dur=".1s" fill="freeze" />
<animate attributeName="viewBox" to="0 4324 100 100" begin="a04.click;a04.wheel;a06.auxclick" dur=".1s" fill="freeze" />
<animate attributeName="viewBox" to="0 5424 100 69" begin="a05.click;a05.wheel;a07.auxclick" dur=".1s" fill="freeze" />
<animate attributeName="viewBox" to="0 6493 100 100" begin="a06.click;a06.wheel;a08.auxclick" dur=".1s" fill="freeze" />
<animate attributeName="viewBox" to="0 7593 100 40" begin="a07.click;a07.wheel;a09.auxclick" dur=".1s" fill="freeze" />
<animate attributeName="viewBox" to="0 8633 100 100" begin="a08.click;a08.wheel;a10.auxclick" dur=".1s" fill="freeze" />
<animate attributeName="viewBox" to="0 9733 100 50" begin="a09.click;a09.wheel;a11.auxclick" dur=".1s" fill="freeze" />
<animate attributeName="viewBox" to="0 10783 100 76" begin="a10.click;a10.wheel;a12.auxclick" dur=".1s" fill="freeze" />
<animate attributeName="viewBox" to="0 11859 100 76" begin="a11.click;a11.wheel;a13.auxclick" dur=".1s" fill="freeze" />
<animate attributeName="viewBox" to="0 12935 100 76" begin="a12.click;a12.wheel;a14.auxclick" dur=".1s" fill="freeze" />
<animate attributeName="viewBox" to="0 14011 100 68" begin="a13.click;a13.wheel;" dur=".1s" fill="freeze" />
<use id="a01" width="100" height="68" x="0" y="0" href="#i01" />
<use id="a02" width="100" height="100" x="0" y="1068" href="#i02" />
<use id="a03" width="100" height="76" x="0" y="2168" href="#i03" />
<use id="a04" width="100" height="80" x="0" y="3244" href="#i04" />
<use id="a05" width="100" height="100" x="0" y="4324" href="#i05" />
<use id="a06" width="100" height="69" x="0" y="5424" href="#i06" />
<use id="a07" width="100" height="100" x="0" y="6493" href="#i07" />
<use id="a08" width="100" height="40" x="0" y="7593" href="#i08" />
<use id="a09" width="100" height="100" x="0" y="8633" href="#i09" />
<use id="a10" width="100" height="50" x="0" y="9733" href="#i10" />
<use id="a11" width="100" height="76" x="0" y="10783" href="#i11" />
<use id="a12" width="100" height="76" x="0" y="11859" href="#i12" />
<use id="a13" width="100" height="76" x="0" y="12935" href="#i13" />
<use id="a14" width="100" height="68" x="0" y="14011" href="#i14" />
</svg>
